#!OML:ASF E:\Style4\Style4.ASF
:FULLY-SPECIFIED
:DEGREES
3726
root 0.188171 17.6381 -1.44416 8.76782 -9.50943 8.05901
lowerback 14.7004 3.87526 3.63003
upperback 7.31746 5.54316 2.66253
thorax -0.398339 2.78641 -0.061754
lowerneck -0.110209 -7.62802 -2.87336
upperneck 1.17773 -10.1428 -6.60366
head 0.168264 -5.10828 -1.56604
rclavicle -9.54166e-015 -2.22639e-014
rhumerus 40.954 17.2246 -50.2451
rradius 51.3953
rwrist 5.55219
rhand 28.2707 7.10147
rfingers 7.12502
rthumb 52.1457 -12.9172
lclavicle -9.54166e-015 -2.22639e-014
lhumerus 4.96694 -0.0547167 10.6378
lradius 75.9544
lwrist 27.1758
lhand 25.8306 28.7081
lfingers 7.12502
lthumb 49.9226 49.9714
rfemur -34.1403 2.37431 9.13259
rtibia 42.7851
rfoot -15.9143 -15.4865
rtoes -16.8145
lfemur -26.1557 5.96639 -28.2712
ltibia 33.253
lfoot -17.6798 10.9485
ltoes -14.8713
3727
root 0.198023 17.6662 -1.43149 8.81158 -9.72787 8.05792
lowerback 14.5396 3.90047 3.67164
upperback 7.198 5.58164 2.7899
thorax -0.447359 2.80241 0.0474846
lowerneck -0.202227 -7.56716 -2.88847
upperneck 1.50069 -10.0341 -7.00643
head 0.265297 -5.06744 -1.70234
rclavicle 1.25632e-013 -2.22639e-014
rhumerus 40.544 17.4766 -50.3669
rradius 51.2738
rwrist 5.62004
rhand 28.3212 7.01529
rfingers 7.12502
rthumb 52.1914 -12.976
lclavicle 1.25632e-013 -2.22639e-014
lhumerus 5.80206 0.611353 9.48241
lradius 75.6922
lwrist 27.3014
lhand 25.8021 28.9997
lfingers 7.12502
lthumb 49.8965 50.2766
rfemur -33.8576 2.48899 9.06483
rtibia 42.186
rfoot -15.9086 -15.2005
rtoes -15.7578
lfemur -25.7851 5.8782 -28.2988
ltibia 32.5904
lfoot -17.5467 11.255
ltoes -14.9743
3728
root 0.207985 17.6907 -1.42015 8.82337 -9.96569 8.03542
lowerback 14.4514 3.92058 3.75338
upperback 7.09622 5.62048 2.90349
thorax -0.510557 2.81949 0.115974
lowerneck -0.377988 -7.50588 -2.93957
upperneck 1.82773 -9.91769 -7.35996
head 0.383114 -5.02574 -1.82261
rclavicle 1.74931e-014 2.22639e-014
rhumerus 40.2459 17.7261 -50.4825
rradius 51.1204
rwrist 5.52045
rhand 28.3915 6.81388
rfingers 7.12502
rthumb 52.2552 -13.139
lclavicle 1.74931e-014 2.22639e-014
lhumerus 6.77827 1.34931 8.45313
lradius 75.3914
lwrist 27.2416
lhand 25.5328 29.3477
lfingers 7.12502
lthumb 49.6499 50.7523
rfemur -33.5616 2.62643 9.02764
rtibia 41.5874
rfoot -15.6551 -15.1308
rtoes -16.0274
lfemur -25.3971 5.83715 -28.3084
ltibia 31.9417
lfoot -17.3967 11.5892
ltoes -15.3564
3729
root 0.217447 17.7136 -1.41047 8.85458 -10.1966 7.97869
lowerback 14.3554 3.95159 3.85103
upperback 6.99121 5.6754 3.01892
thorax -0.571186 2.84487 0.175887
lowerneck -0.48799 -7.45361 -2.98934
upperneck 2.07637 -9.82106 -7.65667
head 0.468805 -4.99057 -1.92051
rclavicle 9.70069e-014 7.63333e-014
rhumerus 39.933 17.9244 -50.6291
rradius 50.9559
rwrist 5.47463
rhand 28.4516 6.8114
rfingers 7.12502
rthumb 52.3096 -13.1085
lclavicle 9.70069e-014 7.63333e-014
lhumerus 7.84826 2.10116 7.56615
lradius 75.098
lwrist 27.015
lhand 25.0416 29.6946
lfingers 7.12502
lthumb 49.1994 51.3278
rfemur -33.3102 2.76662 9.03204
rtibia 41.0046
rfoot -15.1855 -15.204
rtoes -17.5822
lfemur -25.038 5.77659 -28.2733
ltibia 31.3136
lfoot -17.1628 11.8662
ltoes -15.2388
3730
root 0.227909 17.7374 -1.40059 8.8696 -10.3914 7.87904
lowerback 14.2601 3.96385 4.02311
upperback 6.89085 5.71458 3.12885
thorax -0.619261 2.86429 0.191779
lowerneck -0.583229 -7.40157 -2.99087
upperneck 2.346 -9.72275 -8.00132
head 0.554594 -4.95558 -2.04186
rclavicle 3.02153e-014 7.31528e-014
rhumerus 39.6188 18.0743 -50.8949
rradius 50.7732
rwrist 5.52049
rhand 28.6083 6.82774
rfingers 7.12502
rthumb 52.4515 -13.0059
lclavicle 3.02153e-014 7.31528e-014
lhumerus 8.99021 2.63334 6.59835
lradius 74.5477
lwrist 26.9008
lhand 24.7746 29.8376
lfingers 7.12502
lthumb 48.9542 51.5927
rfemur -33.0158 2.82692 9.10265
rtibia 40.4493
rfoot -15.1321 -14.9194
rtoes -16.3213
lfemur -24.6684 5.68845 -28.1817
ltibia 30.7278
lfoot -17.0564 12.0714
ltoes -15.1433
3731
root 0.240005 17.7588 -1.39044 8.87066 -10.618 7.84937
lowerback 14.1482 3.95601 4.11802
upperback 6.80743 5.71552 3.21281
thorax -0.646706 2.86402 0.230514
lowerneck -0.682204 -7.32445 -3.10387
upperneck 2.62008 -9.58753 -8.23345
head 0.655185 -4.90322 -2.1105
rclavicle 6.20208e-014 4.77083e-014
rhumerus 39.3702 18.2902 -51.0923
rradius 50.6614
rwrist 5.4868
rhand 28.5787 6.68169
rfingers 7.12502
rthumb 52.4247 -13.1683
lclavicle 6.20208e-014 4.77083e-014
lhumerus 10.1051 3.07855 5.51125
lradius 73.9389
lwrist 26.9467
lhand 24.7121 29.919
lfingers 7.12502
lthumb 48.8967 51.7024
rfemur -32.752 2.87362 9.08245
rtibia 39.9295
rfoot -15.1218 -14.5799
rtoes -14.9352
lfemur -24.3199 5.63837 -28.1862
ltibia 30.1937
lfoot -17.1206 12.3115
ltoes -15.3008
